<svg width="12" height="13" viewBox="0 0 12 13" fill="none" xmlns="http://www.w3.org/2000/svg">
<path d="M6.37944 6.54057L7.68433 7.84546C7.79065 7.95178 7.84381 8.08478 7.84381 8.24446C7.84381 8.40375 7.79065 8.5414 7.68433 8.65739C7.56834 8.77338 7.4307 8.83137 7.2714 8.83137C7.11172 8.83137 6.97389 8.77338 6.8579 8.65739L5.62551 7.42499C5.49019 7.28967 5.3887 7.13985 5.32103 6.97553C5.25337 6.81121 5.21954 6.6324 5.21954 6.43908V4.69923C5.21954 4.53491 5.27522 4.39708 5.38657 4.28573C5.49753 4.17476 5.63517 4.11928 5.79949 4.11928C5.96381 4.11928 6.10165 4.17476 6.213 4.28573C6.32396 4.39708 6.37944 4.53491 6.37944 4.69923V6.54057ZM5.79949 1.79949C5.96381 1.79949 6.10165 1.85497 6.213 1.96593C6.32396 2.07728 6.37944 2.21512 6.37944 2.37944C6.37944 2.54375 6.32396 2.68159 6.213 2.79294C6.10165 2.9039 5.96381 2.95938 5.79949 2.95938C5.63517 2.95938 5.49753 2.9039 5.38657 2.79294C5.27522 2.68159 5.21954 2.54375 5.21954 2.37944C5.21954 2.21512 5.27522 2.07728 5.38657 1.96593C5.49753 1.85497 5.63517 1.79949 5.79949 1.79949ZM10.4391 6.43908C10.4391 6.6034 10.3834 6.74104 10.2721 6.852C10.1611 6.96335 10.0235 7.01903 9.85914 7.01903C9.69482 7.01903 9.55718 6.96335 9.44621 6.852C9.33486 6.74104 9.27919 6.6034 9.27919 6.43908C9.27919 6.27476 9.33486 6.13693 9.44621 6.02558C9.55718 5.91461 9.69482 5.85913 9.85914 5.85913C10.0235 5.85913 10.1611 5.91461 10.2721 6.02558C10.3834 6.13693 10.4391 6.27476 10.4391 6.43908ZM5.79949 9.91878C5.96381 9.91878 6.10165 9.97445 6.213 10.0858C6.32396 10.1968 6.37944 10.3344 6.37944 10.4987C6.37944 10.663 6.32396 10.8007 6.213 10.9116C6.10165 11.023 5.96381 11.0787 5.79949 11.0787C5.63517 11.0787 5.49753 11.023 5.38657 10.9116C5.27522 10.8007 5.21954 10.663 5.21954 10.4987C5.21954 10.3344 5.27522 10.1968 5.38657 10.0858C5.49753 9.97445 5.63517 9.91878 5.79949 9.91878ZM2.3198 6.43908C2.3198 6.6034 2.26432 6.74104 2.15335 6.852C2.042 6.96335 1.90417 7.01903 1.73985 7.01903C1.57553 7.01903 1.43769 6.96335 1.32634 6.852C1.21538 6.74104 1.1599 6.6034 1.1599 6.43908C1.1599 6.27476 1.21538 6.13693 1.32634 6.02558C1.43769 5.91461 1.57553 5.85913 1.73985 5.85913C1.90417 5.85913 2.042 5.91461 2.15335 6.02558C2.26432 6.13693 2.3198 6.27476 2.3198 6.43908ZM5.79949 12.2386C4.99723 12.2386 4.2433 12.0862 3.53769 11.7816C2.83209 11.4773 2.21831 11.0642 1.69635 10.5422C1.1744 10.0203 0.76128 9.40649 0.457 8.70088C0.152333 7.99528 0 7.24134 0 6.43908C0 5.63682 0.152333 4.88288 0.457 4.17728C0.76128 3.47167 1.1744 2.85789 1.69635 2.33594C2.21831 1.81398 2.83209 1.40067 3.53769 1.09601C4.2433 0.791727 4.99723 0.639587 5.79949 0.639587C6.60176 0.639587 7.35569 0.791727 8.06129 1.09601C8.7669 1.40067 9.38068 1.81398 9.90263 2.33594C10.4246 2.85789 10.8377 3.47167 11.142 4.17728C11.4467 4.88288 11.599 5.63682 11.599 6.43908C11.599 7.24134 11.4467 7.99528 11.142 8.70088C10.8377 9.40649 10.4246 10.0203 9.90263 10.5422C9.38068 11.0642 8.7669 11.4773 8.06129 11.7816C7.35569 12.0862 6.60176 12.2386 5.79949 12.2386ZM5.79949 11.0787C7.09471 11.0787 8.19178 10.6292 9.0907 9.73029C9.98963 8.83137 10.4391 7.7343 10.4391 6.43908C10.4391 5.14386 9.98963 4.04679 9.0907 3.14787C8.19178 2.24895 7.09471 1.79949 5.79949 1.79949C4.50427 1.79949 3.4072 2.24895 2.50828 3.14787C1.60936 4.04679 1.1599 5.14386 1.1599 6.43908C1.1599 7.7343 1.60936 8.83137 2.50828 9.73029C3.4072 10.6292 4.50427 11.0787 5.79949 11.0787Z" fill="black"/>
</svg>
