<svg width="15" height="15" viewBox="0 0 15 15" fill="none" xmlns="http://www.w3.org/2000/svg">
<path d="M12.244 5.79926L11.5307 6.87217C11.8747 7.55829 12.0431 8.31904 12.0209 9.08626C11.9986 9.85347 11.7863 10.6032 11.4031 11.2682H3.365C2.86692 10.4041 2.66054 9.40256 2.77644 8.41197C2.89234 7.42139 3.32436 6.49452 4.00845 5.76877C4.69254 5.04303 5.59228 4.55704 6.57429 4.38285C7.5563 4.20867 8.56831 4.35556 9.46027 4.80175L10.5332 4.08841C9.44083 3.38796 8.14513 3.07409 6.85333 3.19699C5.56153 3.3199 4.34828 3.8725 3.40763 4.76638C2.46698 5.66027 1.85329 6.84379 1.66472 8.12765C1.47615 9.41151 1.7236 10.7215 2.36749 11.8481C2.4687 12.0234 2.61402 12.1692 2.78902 12.2709C2.96401 12.3727 3.16259 12.4269 3.365 12.4281H11.3973C11.6017 12.4289 11.8027 12.3757 11.9799 12.2738C12.1571 12.172 12.3042 12.0251 12.4064 11.8481C12.9408 10.9225 13.2089 9.86718 13.1813 8.79873C13.1537 7.73028 12.8313 6.69025 12.2498 5.79346L12.244 5.79926Z" fill="black"/>
<path d="M6.56638 9.76612C6.6741 9.87397 6.80203 9.95952 6.94284 10.0179C7.08364 10.0763 7.23458 10.1063 7.38701 10.1063C7.53944 10.1063 7.69037 10.0763 7.83118 10.0179C7.97199 9.95952 8.09991 9.87397 8.20764 9.76612L11.4901 4.84235L6.56638 8.12487C6.45854 8.23259 6.37298 8.36051 6.31461 8.50132C6.25624 8.64213 6.2262 8.79307 6.2262 8.94549C6.2262 9.09792 6.25624 9.24886 6.31461 9.38967C6.37298 9.53048 6.45854 9.6584 6.56638 9.76612Z" fill="black"/>
</svg>
