<svg width="15" height="15" viewBox="0 0 15 15" fill="none" xmlns="http://www.w3.org/2000/svg">
<path opacity="0.3" d="M3.55127 11.2906L5.29112 10.6179V3.83247L3.55127 4.41822V11.2906ZM9.93071 11.4298L11.6706 10.8441V3.97165L9.93071 4.65019V11.4298Z" fill="black"/>
<path d="M12.5405 2.41159L12.4477 2.42899L9.35075 3.62949L5.87105 2.41159L2.60014 3.5135C2.47835 3.55409 2.39136 3.65849 2.39136 3.79187V12.5607C2.39136 12.7231 2.51895 12.8507 2.68133 12.8507L2.77412 12.8333L5.87105 11.6328L9.35075 12.8507L12.6217 11.7488C12.7435 11.7082 12.8304 11.6038 12.8304 11.4704V2.70157C12.8304 2.53918 12.7029 2.41159 12.5405 2.41159ZM5.2911 10.6179L3.55126 11.2906V4.41822L5.2911 3.83247V10.6179ZM8.7708 11.4182L6.451 10.6063V3.84407L8.7708 4.656V11.4182ZM11.6705 10.8441L9.9307 11.4298V4.6502L11.6705 3.97746V10.8441Z" fill="black"/>
</svg>
