<svg width="15" height="15" viewBox="0 0 15 15" fill="none" xmlns="http://www.w3.org/2000/svg">
<g clip-path="url(#clip0_1_1291)">
<path d="M1.90442 6.68323C1.90442 4.45971 3.67471 2.65694 5.85851 2.65694C7.68448 2.65694 9.22164 3.91717 9.67632 5.63005C10.0444 5.43978 10.4529 5.34073 10.8672 5.34123C12.3229 5.34123 13.5034 6.54289 13.5034 8.02553C13.5034 9.08161 12.9043 9.99532 12.0332 10.4335C11.9607 10.47 11.8795 10.4863 11.7984 10.4863H5.09414M5.09414 10.4863H4.22422C3.91659 10.4863 3.62157 10.6085 3.40404 10.826C3.18652 11.0435 3.06432 11.3385 3.06432 11.6462V11.6462C3.06432 11.9538 3.18652 12.2488 3.40404 12.4663C3.62157 12.6838 3.91659 12.806 4.22422 12.806H5.09414" stroke="black" stroke-width="1.1599" stroke-linecap="round" stroke-linejoin="round"/>
<path d="M7.12394 6.13661H6.25401C5.94639 6.13661 5.65137 6.25882 5.43384 6.47634C5.21632 6.69386 5.09412 6.98889 5.09412 7.29651V7.29651C5.09412 7.60413 5.21632 7.89916 5.43384 8.11668C5.65137 8.33421 5.94639 8.45641 6.25401 8.45641H7.12394M6.25401 8.45641H10.0237" stroke="black" stroke-width="1.1599" stroke-linecap="round" stroke-linejoin="round"/>
</g>
<defs>
<clipPath id="clip0_1_1291">
<rect width="13.9188" height="13.9188" fill="white" transform="translate(0.744507 0.917084)"/>
</clipPath>
</defs>
</svg>
