<svg width="14" height="15" viewBox="0 0 14 15" fill="none" xmlns="http://www.w3.org/2000/svg">
<g clip-path="url(#clip0_502_18)">
<path d="M1.15991 5.85906C1.15991 3.63554 2.93021 1.83276 5.11401 1.83276C6.93998 1.83276 8.47713 3.09299 8.93181 4.80587C9.29993 4.61561 9.70836 4.51656 10.1227 4.51706C11.5784 4.51706 12.7589 5.71871 12.7589 7.20135C12.7589 8.25744 12.1598 9.17115 11.2887 9.6093C11.2162 9.64584 11.135 9.66208 11.0538 9.66208H4.34963M4.34963 9.66208H3.47971C3.17208 9.66208 2.87706 9.78428 2.65954 10.0018C2.44201 10.2193 2.31981 10.5144 2.31981 10.822V10.822C2.31981 11.1296 2.44201 11.4246 2.65954 11.6421C2.87706 11.8597 3.17208 11.9819 3.47971 11.9819H4.34963" stroke="black" stroke-width="0.8" stroke-linecap="round" stroke-linejoin="round"/>
<path d="M6.37943 5.3125H5.50951C5.20188 5.3125 4.90686 5.4347 4.68934 5.65223C4.47181 5.86975 4.34961 6.16477 4.34961 6.4724V6.4724C4.34961 6.78002 4.47181 7.07505 4.68934 7.29257C4.90686 7.51009 5.20188 7.6323 5.50951 7.6323H6.37943M5.50951 7.6323H9.27918" stroke="black" stroke-width="0.8" stroke-linecap="round" stroke-linejoin="round"/>
</g>
<defs>
<clipPath id="clip0_502_18">
<rect width="13.9188" height="13.9188" fill="white" transform="translate(0 0.0930176)"/>
</clipPath>
</defs>
</svg>
