<svg id="visual" viewBox="0 0 960 540" width="960" height="540" xmlns="http://www.w3.org/2000/svg" xmlns:xlink="http://www.w3.org/1999/xlink" version="1.1"><path d="M0 167L9.3 161.8C18.7 156.7 37.3 146.3 56.2 143.8C75 141.3 94 146.7 112.8 153.5C131.7 160.3 150.3 168.7 169.2 172.7C188 176.7 207 176.3 225.8 173.3C244.7 170.3 263.3 164.7 282.2 162.7C301 160.7 320 162.3 338.8 166.3C357.7 170.3 376.3 176.7 395.2 174C414 171.3 433 159.7 451.8 152.3C470.7 145 489.3 142 508.2 149.2C527 156.3 546 173.7 564.8 179C583.7 184.3 602.3 177.7 621.2 177.3C640 177 659 183 677.8 186.2C696.7 189.3 715.3 189.7 734.2 180.7C753 171.7 772 153.3 790.8 154C809.7 154.7 828.3 174.3 847.2 182.2C866 190 885 186 903.8 184C922.7 182 941.3 182 950.7 182L960 182L960 0L950.7 0C941.3 0 922.7 0 903.8 0C885 0 866 0 847.2 0C828.3 0 809.7 0 790.8 0C772 0 753 0 734.2 0C715.3 0 696.7 0 677.8 0C659 0 640 0 621.2 0C602.3 0 583.7 0 564.8 0C546 0 527 0 508.2 0C489.3 0 470.7 0 451.8 0C433 0 414 0 395.2 0C376.3 0 357.7 0 338.8 0C320 0 301 0 282.2 0C263.3 0 244.7 0 225.8 0C207 0 188 0 169.2 0C150.3 0 131.7 0 112.8 0C94 0 75 0 56.2 0C37.3 0 18.7 0 9.3 0L0 0Z" fill="#86c5e5"></path><path d="M0 107L9.3 114C18.7 121 37.3 135 56.2 137C75 139 94 129 112.8 126C131.7 123 150.3 127 169.2 126.2C188 125.3 207 119.7 225.8 120.7C244.7 121.7 263.3 129.3 282.2 136C301 142.7 320 148.3 338.8 144.5C357.7 140.7 376.3 127.3 395.2 125.3C414 123.3 433 132.7 451.8 133.5C470.7 134.3 489.3 126.7 508.2 121.5C527 116.3 546 113.7 564.8 117.5C583.7 121.3 602.3 131.7 621.2 136C640 140.3 659 138.7 677.8 141.7C696.7 144.7 715.3 152.3 734.2 150.5C753 148.7 772 137.3 790.8 136.3C809.7 135.3 828.3 144.7 847.2 145C866 145.3 885 136.7 903.8 134.2C922.7 131.7 941.3 135.3 950.7 137.2L960 139L960 0L950.7 0C941.3 0 922.7 0 903.8 0C885 0 866 0 847.2 0C828.3 0 809.7 0 790.8 0C772 0 753 0 734.2 0C715.3 0 696.7 0 677.8 0C659 0 640 0 621.2 0C602.3 0 583.7 0 564.8 0C546 0 527 0 508.2 0C489.3 0 470.7 0 451.8 0C433 0 414 0 395.2 0C376.3 0 357.7 0 338.8 0C320 0 301 0 282.2 0C263.3 0 244.7 0 225.8 0C207 0 188 0 169.2 0C150.3 0 131.7 0 112.8 0C94 0 75 0 56.2 0C37.3 0 18.7 0 9.3 0L0 0Z" fill="#73bfe4"></path><path d="M0 85L9.3 89.2C18.7 93.3 37.3 101.7 56.2 108.2C75 114.7 94 119.3 112.8 117.3C131.7 115.3 150.3 106.7 169.2 101.5C188 96.3 207 94.7 225.8 94.5C244.7 94.3 263.3 95.7 282.2 98.5C301 101.3 320 105.7 338.8 107.5C357.7 109.3 376.3 108.7 395.2 104.3C414 100 433 92 451.8 88.2C470.7 84.3 489.3 84.7 508.2 91C527 97.3 546 109.7 564.8 113.2C583.7 116.7 602.3 111.3 621.2 108.7C640 106 659 106 677.8 108.3C696.7 110.7 715.3 115.3 734.2 115.8C753 116.3 772 112.7 790.8 109.3C809.7 106 828.3 103 847.2 101.5C866 100 885 100 903.8 103.7C922.7 107.3 941.3 114.7 950.7 118.3L960 122L960 0L950.7 0C941.3 0 922.7 0 903.8 0C885 0 866 0 847.2 0C828.3 0 809.7 0 790.8 0C772 0 753 0 734.2 0C715.3 0 696.7 0 677.8 0C659 0 640 0 621.2 0C602.3 0 583.7 0 564.8 0C546 0 527 0 508.2 0C489.3 0 470.7 0 451.8 0C433 0 414 0 395.2 0C376.3 0 357.7 0 338.8 0C320 0 301 0 282.2 0C263.3 0 244.7 0 225.8 0C207 0 188 0 169.2 0C150.3 0 131.7 0 112.8 0C94 0 75 0 56.2 0C37.3 0 18.7 0 9.3 0L0 0Z" fill="#5db9e3"></path><path d="M0 62L9.3 66.7C18.7 71.3 37.3 80.7 56.2 79.2C75 77.7 94 65.3 112.8 62.5C131.7 59.7 150.3 66.3 169.2 67C188 67.7 207 62.3 225.8 58.8C244.7 55.3 263.3 53.7 282.2 52.3C301 51 320 50 338.8 49.2C357.7 48.3 376.3 47.7 395.2 50.5C414 53.3 433 59.7 451.8 64.7C470.7 69.7 489.3 73.3 508.2 71.8C527 70.3 546 63.7 564.8 62C583.7 60.3 602.3 63.7 621.2 66.3C640 69 659 71 677.8 68C696.7 65 715.3 57 734.2 55.7C753 54.3 772 59.7 790.8 60.5C809.7 61.3 828.3 57.7 847.2 59C866 60.3 885 66.7 903.8 67C922.7 67.3 941.3 61.7 950.7 58.8L960 56L960 0L950.7 0C941.3 0 922.7 0 903.8 0C885 0 866 0 847.2 0C828.3 0 809.7 0 790.8 0C772 0 753 0 734.2 0C715.3 0 696.7 0 677.8 0C659 0 640 0 621.2 0C602.3 0 583.7 0 564.8 0C546 0 527 0 508.2 0C489.3 0 470.7 0 451.8 0C433 0 414 0 395.2 0C376.3 0 357.7 0 338.8 0C320 0 301 0 282.2 0C263.3 0 244.7 0 225.8 0C207 0 188 0 169.2 0C150.3 0 131.7 0 112.8 0C94 0 75 0 56.2 0C37.3 0 18.7 0 9.3 0L0 0Z" fill="#42b3e2"></path><path d="M0 14L9.3 20.7C18.7 27.3 37.3 40.7 56.2 46.8C75 53 94 52 112.8 50.3C131.7 48.7 150.3 46.3 169.2 41.8C188 37.3 207 30.7 225.8 28.3C244.7 26 263.3 28 282.2 27.5C301 27 320 24 338.8 28C357.7 32 376.3 43 395.2 42.8C414 42.7 433 31.3 451.8 30C470.7 28.7 489.3 37.3 508.2 38.3C527 39.3 546 32.7 564.8 29.7C583.7 26.7 602.3 27.3 621.2 32C640 36.7 659 45.3 677.8 46.5C696.7 47.7 715.3 41.3 734.2 35.8C753 30.3 772 25.7 790.8 25C809.7 24.3 828.3 27.7 847.2 27.3C866 27 885 23 903.8 22.2C922.7 21.3 941.3 23.7 950.7 24.8L960 26L960 0L950.7 0C941.3 0 922.7 0 903.8 0C885 0 866 0 847.2 0C828.3 0 809.7 0 790.8 0C772 0 753 0 734.2 0C715.3 0 696.7 0 677.8 0C659 0 640 0 621.2 0C602.3 0 583.7 0 564.8 0C546 0 527 0 508.2 0C489.3 0 470.7 0 451.8 0C433 0 414 0 395.2 0C376.3 0 357.7 0 338.8 0C320 0 301 0 282.2 0C263.3 0 244.7 0 225.8 0C207 0 188 0 169.2 0C150.3 0 131.7 0 112.8 0C94 0 75 0 56.2 0C37.3 0 18.7 0 9.3 0L0 0Z" fill="#0cade0"></path></svg>