<svg width="14" height="14" viewBox="0 0 14 14" fill="none" xmlns="http://www.w3.org/2000/svg">
<path d="M7 8.7111C7.32667 9.16843 7.76417 9.5441 8.28333 9.79999L7 10.9978L5.71667 9.79999C6.23583 9.5441 6.67917 9.16843 7 8.7111ZM9.91667 6.09777C9.60725 6.09777 9.3105 6.21249 9.09171 6.4167C8.87292 6.6209 8.75 6.89786 8.75 7.18666C8.75 7.47545 8.87292 7.75241 9.09171 7.95662C9.3105 8.16082 9.60725 8.27554 9.91667 8.27554C10.2261 8.27554 10.5228 8.16082 10.7416 7.95662C10.9604 7.75241 11.0833 7.47545 11.0833 7.18666C11.0833 6.89786 10.9604 6.6209 10.7416 6.4167C10.5228 6.21249 10.2261 6.09777 9.91667 6.09777ZM4.08333 6.09777C3.77391 6.09777 3.47717 6.21249 3.25838 6.4167C3.03958 6.6209 2.91667 6.89786 2.91667 7.18666C2.91667 7.47545 3.03958 7.75241 3.25838 7.95662C3.47717 8.16082 3.77391 8.27554 4.08333 8.27554C4.39275 8.27554 4.6895 8.16082 4.90829 7.95662C5.12708 7.75241 5.25 7.47545 5.25 7.18666C5.25 6.89786 5.12708 6.6209 4.90829 6.4167C4.6895 6.21249 4.39275 6.09777 4.08333 6.09777ZM9.91667 4.73666C10.5355 4.73666 11.129 4.9661 11.5666 5.37451C12.0042 5.78292 12.25 6.33685 12.25 6.91443C12.25 7.49202 12.0042 8.04594 11.5666 8.45435C11.129 8.86277 10.5355 9.09221 9.91667 9.09221C9.29783 9.09221 8.70434 8.86277 8.26675 8.45435C7.82917 8.04594 7.58333 7.49202 7.58333 6.91443C7.58333 6.33685 7.82917 5.78292 8.26675 5.37451C8.70434 4.9661 9.29783 4.73666 9.91667 4.73666ZM4.08333 4.73666C4.70217 4.73666 5.29566 4.9661 5.73325 5.37451C6.17083 5.78292 6.41667 6.33685 6.41667 6.91443C6.41667 7.49202 6.17083 8.04594 5.73325 8.45435C5.29566 8.86277 4.70217 9.09221 4.08333 9.09221C3.4645 9.09221 2.871 8.86277 2.43342 8.45435C1.99583 8.04594 1.75 7.49202 1.75 6.91443C1.75 6.33685 1.99583 5.78292 2.43342 5.37451C2.871 4.9661 3.4645 4.73666 4.08333 4.73666ZM1.30667 0.544434C2.33333 2.55888 1.5925 4.06154 0.904167 5.55332C0.694167 5.98888 0.583334 6.44077 0.583334 6.91443C0.583334 7.78081 0.952083 8.6117 1.60846 9.22432C2.26484 9.83693 3.15508 10.1811 4.08333 10.1811C4.20583 10.1757 4.32833 10.1702 4.45083 10.1539L6.1775 11.7654L7 12.5222L7.8225 11.7654L9.54917 10.1539C9.67167 10.1702 9.79417 10.1757 9.91667 10.1811C10.8449 10.1811 11.7352 9.83693 12.3915 9.22432C13.0479 8.6117 13.4167 7.78081 13.4167 6.91443C13.4167 6.44077 13.3058 5.98888 13.0958 5.55332C12.4075 4.06154 11.6667 2.55888 12.6933 0.544434C11.1533 1.66599 8.96 2.55343 7 2.55888C5.04 2.55343 2.84667 1.66599 1.30667 0.544434Z" fill="black"/>
</svg>
