<svg width="15" height="16" viewBox="0 0 15 16" fill="none" xmlns="http://www.w3.org/2000/svg">
<circle cx="7.5" cy="8.5" r="6.75" stroke="black" stroke-width="1.5"/>
<path d="M7.16556 4.54845V3.59999H7.86029V4.53637C8.22678 4.54845 8.54294 4.58872 8.80875 4.65719C9.07456 4.72565 9.29405 4.81426 9.46723 4.923C9.80553 5.14451 9.97469 5.42844 9.97469 5.7748C9.97469 6.03658 9.86192 6.25205 9.63638 6.4212C9.41085 6.59035 9.07053 6.67493 8.61543 6.67493C8.61543 6.41315 8.55502 6.14129 8.4342 5.85937C8.31337 5.57746 8.12207 5.38011 7.86029 5.26734V7.67776C7.88042 7.68581 7.92674 7.70394 7.99923 7.73213L8.16839 7.80462C8.54696 7.95364 8.87117 8.10668 9.14101 8.26375C9.41085 8.42082 9.63235 8.59198 9.80553 8.77724C10.1318 9.13166 10.2949 9.57065 10.2949 10.0942C10.2949 10.7225 10.0814 11.2501 9.65451 11.677C9.2276 12.0958 8.62953 12.3516 7.86029 12.4442V13.9787H7.16556V12.4684C6.69435 12.4563 6.29563 12.3959 5.96941 12.2871C5.64319 12.1784 5.37939 12.0415 5.17802 11.8763C4.97262 11.7112 4.82562 11.528 4.73702 11.3266C4.64842 11.1252 4.60411 10.9279 4.60411 10.7346C4.60411 10.3882 4.7189 10.1365 4.94846 9.97943C5.18205 9.82236 5.45591 9.74383 5.77005 9.74383C5.77005 10.356 5.89893 10.8373 6.15669 11.1877C6.39833 11.534 6.73462 11.7414 7.16556 11.8099V9.13971L6.95412 9.05514C6.55943 8.89404 6.23119 8.73093 5.96941 8.5658C5.70763 8.39665 5.49417 8.21945 5.32905 8.03418C5.16795 7.8449 5.05116 7.64352 4.97866 7.43007C4.9102 7.21259 4.87597 6.97094 4.87597 6.70513C4.87597 6.4071 4.93235 6.13525 5.04512 5.88958C5.15788 5.63988 5.31495 5.4224 5.51633 5.23714C5.7177 5.05188 5.95733 4.90085 6.23522 4.78405C6.51714 4.66323 6.82725 4.58469 7.16556 4.54845ZM6.32584 6.1856C6.32584 6.43127 6.38826 6.64271 6.51311 6.81992C6.64199 6.99712 6.85947 7.17232 7.16556 7.34549V5.20693C6.92391 5.25123 6.72254 5.35595 6.56144 5.52107C6.40437 5.68217 6.32584 5.90368 6.32584 6.1856ZM8.82687 10.65C8.82687 10.3882 8.74632 10.1647 8.58522 9.97943C8.42413 9.79417 8.18248 9.61696 7.86029 9.44781V11.7857C8.1704 11.7173 8.40802 11.5803 8.57314 11.3749C8.74229 11.1695 8.82687 10.9279 8.82687 10.65Z" fill="black"/>
</svg>
