<svg width="1920" height="1080" viewBox="0 0 1920 1080" xmlns="http://www.w3.org/2000/svg"><path d="M1237.483929553468,596.9999999999999C1230.6505962201347,626.7595444681765,1300.6728719774578,595.1249069532987,1304.5795466159752,621.0310256556344C1308.4862212544926,646.93714435797,1292.7070063388,723.9331644773158,1260.9239773845718,752.4367122140138C1229.1409484303435,780.9402599507118,1170.2350647422622,768.3102978565099,1113.8813728906052,792.0523120758221C1057.5276810389482,815.7943262951343,972.6547736148733,882.2709284726634,922.80182627463,894.8887975298871C872.9488789343867,907.5066665871109,851.4608887100177,897.4058817917944,814.7636888491452,867.7595264191646C778.0664889882727,838.1131710465347,730.5468002967818,756.8144638682022,702.6186271093948,717.0106652941079C674.6904539220077,677.2068667200135,643.5591525229472,664.0996598663933,647.194649724823,628.9367349745987C650.8301469266987,593.7738100828042,719.8609474232206,532.702976784185,724.4316103206493,506.03311594334036C729.0022732180779,479.36325510249566,658.1072288295029,516.549676989948,674.6186271093947,468.9175699295306C691.1300253892864,421.28546286911313,776.9694668057939,261.88435369627445,823.4999999999998,220.2404735808356C870.0305331942056,178.59659346539675,904.7382641261954,219.8687337688172,953.8018262746297,219.0542892368975C1002.8653884230639,218.23984470497777,1066.3610143722815,204.47607285447077,1117.8813728906052,215.35380638931736C1169.401731408929,226.23153992416394,1224.9742817636766,246.46736503643416,1262.9239773845716,284.32069044597705C1300.8736730054666,322.17401585551994,1349.819554587826,390.3605405875708,1345.5795466159752,442.47375884657464C1341.3395386441246,494.58697710557846,1244.3172628868012,567.2404555318233,1237.483929553468,596.9999999999999C1230.6505962201347,626.7595444681765,1300.6728719774578,595.1249069532987,1304.5795466159752,621.0310256556344" fill="#ffa500"/></svg>