<svg width="19" height="18" viewBox="0 0 19 18" fill="none" xmlns="http://www.w3.org/2000/svg">
<g clip-path="url(#clip0_211_6)">
<path fill-rule="evenodd" clip-rule="evenodd" d="M9.30738 14.9457L10.3843 14.9865L10.9601 15.0021L10.3108 14.9837L9.78306 14.9637L9.30738 14.9457L9.08468 14.7645L8.63907 14.402L9.30738 14.9457L8.84894 16.0021L9.08469 16.151L10.4323 17.0021L8.84894 16.0021L9.30738 14.9457ZM9.82562 13.1982L14.7219 0.607356C14.8783 0.204516 14.4069 -0.157283 14.0233 0.0713168L9.37646 2.84691L4.73001 0.0713168C4.34621 -0.157823 3.87425 0.204156 4.03081 0.607356L8.93091 13.2074C9.02059 13.4046 9.17468 13.5011 9.38387 13.5017C9.59287 13.5022 9.76729 13.3476 9.82562 13.1982ZM9.85146 10.5288L9.85146 3.62721L13.3475 1.53867L9.85146 10.5288Z" fill="black"/>
<path d="M10.0293 15.0633C10.0128 14.9082 9.94292 14.7875 9.81981 14.7011C9.69789 14.6147 9.53927 14.5715 9.34396 14.5715C9.20665 14.5715 9.08887 14.5922 8.99062 14.6336C8.89237 14.675 8.81721 14.7313 8.76513 14.8023C8.71304 14.8733 8.68641 14.9544 8.68523 15.0455C8.68523 15.1213 8.70239 15.187 8.73672 15.2426C8.77223 15.2983 8.82017 15.3456 8.88054 15.3847C8.94091 15.4226 9.00779 15.4545 9.08118 15.4806C9.15457 15.5066 9.22855 15.5285 9.30312 15.5462L9.64403 15.6315C9.78134 15.6634 9.91333 15.7066 10.04 15.7611C10.1678 15.8155 10.2821 15.8842 10.3827 15.9671C10.4845 16.0499 10.565 16.1499 10.6241 16.2671C10.6833 16.3843 10.7129 16.5216 10.7129 16.6791C10.7129 16.8921 10.6585 17.0797 10.5496 17.2419C10.4407 17.4029 10.2832 17.529 10.0773 17.6201C9.87249 17.7101 9.6245 17.7551 9.33331 17.7551C9.0504 17.7551 8.80478 17.7113 8.59645 17.6237C8.3893 17.5361 8.22713 17.4082 8.10994 17.2401C7.99394 17.0721 7.9312 16.8673 7.92173 16.6258H8.56981C8.57928 16.7525 8.61835 16.8578 8.687 16.9418C8.75566 17.0259 8.84503 17.0886 8.95511 17.1301C9.06638 17.1715 9.19067 17.1922 9.32798 17.1922C9.47121 17.1922 9.59668 17.1709 9.7044 17.1283C9.8133 17.0845 9.89853 17.0241 9.96008 16.9472C10.0216 16.869 10.053 16.7779 10.0542 16.6737C10.053 16.579 10.0252 16.5009 9.97074 16.4394C9.91629 16.3766 9.83994 16.3245 9.74169 16.2831C9.64462 16.2405 9.53099 16.2026 9.40078 16.1695L8.98707 16.0629C8.68759 15.986 8.45085 15.8694 8.27684 15.7132C8.10402 15.5557 8.01761 15.3468 8.01761 15.0864C8.01761 14.8721 8.07561 14.6845 8.19162 14.5235C8.3088 14.3625 8.46801 14.2377 8.66924 14.1489C8.87048 14.0589 9.09834 14.0139 9.35284 14.0139C9.61089 14.0139 9.83698 14.0589 10.0311 14.1489C10.2264 14.2377 10.3797 14.3614 10.491 14.52C10.6022 14.6774 10.6597 14.8585 10.6632 15.0633H10.0293Z" fill="black"/>
</g>
<defs>
<clipPath id="clip0_211_6">
<rect width="19" height="18" fill="white" transform="matrix(-1 0 0 -1 19 18)"/>
</clipPath>
</defs>
</svg>
