<svg width="15" height="15" viewBox="0 0 15 15" fill="none" xmlns="http://www.w3.org/2000/svg">
<path d="M12.2452 2.07644C12.0914 2.07644 11.9439 2.13755 11.8352 2.24631C11.7264 2.35507 11.6653 2.50258 11.6653 2.65639V3.02582C11.1762 3.63225 10.558 4.12199 9.85569 4.45938C9.15342 4.79677 8.38476 4.97332 7.60565 4.97619H4.12596C3.66466 4.97665 3.22239 5.1601 2.89621 5.48629C2.57002 5.81247 2.38657 6.25474 2.38611 6.71604V7.87594C2.38657 8.33723 2.57002 8.7795 2.89621 9.10569C3.22239 9.43187 3.66466 9.61532 4.12596 9.61579H4.40665L3.01303 12.867C2.9752 12.9552 2.95987 13.0515 2.96843 13.1471C2.97698 13.2428 3.00914 13.3348 3.06203 13.4149C3.11492 13.4951 3.18688 13.5608 3.27146 13.6063C3.35603 13.6518 3.45057 13.6755 3.54659 13.6754H5.86638C5.97978 13.6754 6.09067 13.6421 6.18531 13.5796C6.27994 13.5171 6.35417 13.4282 6.39878 13.324L7.97856 9.63782C8.69224 9.69024 9.38759 9.8884 10.0217 10.2201C10.6558 10.5517 11.2152 11.0099 11.6653 11.5662V11.9356C11.6653 12.0894 11.7264 12.2369 11.8352 12.3457C11.9439 12.4544 12.0914 12.5155 12.2452 12.5155C12.3991 12.5155 12.5466 12.4544 12.6553 12.3457C12.7641 12.2369 12.8252 12.0894 12.8252 11.9356V2.65639C12.8252 2.50258 12.7641 2.35507 12.6553 2.24631C12.5466 2.13755 12.3991 2.07644 12.2452 2.07644ZM4.12596 8.45589C3.97214 8.45589 3.82463 8.39478 3.71587 8.28602C3.60711 8.17726 3.54601 8.02975 3.54601 7.87594V6.71604C3.54601 6.56223 3.60711 6.41471 3.71587 6.30595C3.82463 6.19719 3.97214 6.13609 4.12596 6.13609H4.70591V8.45589H4.12596ZM5.48362 12.5155H4.42579L5.66804 9.61579H6.72645L5.48362 12.5155ZM11.6659 9.91852C10.5224 8.97643 9.08782 8.45958 7.60623 8.45589H5.86638V6.13609H7.60623C9.08781 6.13235 10.5224 5.6155 11.6659 4.67346V9.91852Z" fill="black"/>
</svg>
