<svg id="visual" viewBox="0 0 450 100" width="450" height="100" xmlns="http://www.w3.org/2000/svg" xmlns:xlink="http://www.w3.org/1999/xlink" version="1.1"><rect x="0" y="0" width="450" height="100" fill="#0CADE0"></rect><path d="M0 61L5.3 64C10.7 67 21.3 73 32 74.8C42.7 76.7 53.3 74.3 64 74.8C74.7 75.3 85.3 78.7 96.2 77C107 75.3 118 68.7 128.8 67.5C139.7 66.3 150.3 70.7 161 72.8C171.7 75 182.3 75 193 72.5C203.7 70 214.3 65 225 64.5C235.7 64 246.3 68 257 71.2C267.7 74.3 278.3 76.7 289 76.7C299.7 76.7 310.3 74.3 321.2 74C332 73.7 343 75.3 353.8 77C364.7 78.7 375.3 80.3 386 80.7C396.7 81 407.3 80 418 78.7C428.7 77.3 439.3 75.7 444.7 74.8L450 74L450 101L444.7 101C439.3 101 428.7 101 418 101C407.3 101 396.7 101 386 101C375.3 101 364.7 101 353.8 101C343 101 332 101 321.2 101C310.3 101 299.7 101 289 101C278.3 101 267.7 101 257 101C246.3 101 235.7 101 225 101C214.3 101 203.7 101 193 101C182.3 101 171.7 101 161 101C150.3 101 139.7 101 128.8 101C118 101 107 101 96.2 101C85.3 101 74.7 101 64 101C53.3 101 42.7 101 32 101C21.3 101 10.7 101 5.3 101L0 101Z" fill="#FFF3E8" stroke-linecap="round" stroke-linejoin="miter"></path></svg>