<svg id="visual" viewBox="0 0 450 900" width="450" height="900" xmlns="http://www.w3.org/2000/svg" xmlns:xlink="http://www.w3.org/1999/xlink" version="1.1"><rect x="0" y="0" width="450" height="900" fill="#0CADE0"></rect><path d="M0 515L10.7 510.2C21.3 505.3 42.7 495.7 64.2 508.5C85.7 521.3 107.3 556.7 128.8 557.7C150.3 558.7 171.7 525.3 193 514.2C214.3 503 235.7 514 257 531.8C278.3 549.7 299.7 574.3 321.2 574.5C342.7 574.7 364.3 550.3 385.8 539.5C407.3 528.7 428.7 531.3 439.3 532.7L450 534L450 901L439.3 901C428.7 901 407.3 901 385.8 901C364.3 901 342.7 901 321.2 901C299.7 901 278.3 901 257 901C235.7 901 214.3 901 193 901C171.7 901 150.3 901 128.8 901C107.3 901 85.7 901 64.2 901C42.7 901 21.3 901 10.7 901L0 901Z" fill="#FFF3E8" stroke-linecap="round" stroke-linejoin="miter"></path></svg>