<svg width="18" height="18" viewBox="0 0 18 18" fill="none" xmlns="http://www.w3.org/2000/svg">
<path d="M13.2825 11.4675L12.2175 12.5325L13.1925 13.5H12C11.6022 13.5 11.2206 13.342 10.9393 13.0607C10.658 12.7794 10.5 12.3978 10.5 12V4.5C10.5 3.90326 10.2629 3.33097 9.84099 2.90901C9.41903 2.48705 8.84674 2.25 8.25 2.25C7.6875 2.25 7.1625 2.4675 6.75 2.835C6.33771 2.46557 5.80359 2.26128 5.25 2.26128C4.69641 2.26128 4.16229 2.46557 3.75 2.835C3.3375 2.46 2.805 2.25 2.25 2.25V3.75C2.44891 3.75 2.63968 3.82902 2.78033 3.96967C2.92098 4.11032 3 4.30109 3 4.5V12H4.5V4.5C4.5 4.30109 4.57902 4.11032 4.71967 3.96967C4.86032 3.82902 5.05109 3.75 5.25 3.75C5.44891 3.75 5.63968 3.82902 5.78033 3.96967C5.92098 4.11032 6 4.30109 6 4.5V12H7.5V4.5C7.5 4.30109 7.57902 4.11032 7.71967 3.96967C7.86032 3.82902 8.05109 3.75 8.25 3.75C8.44891 3.75 8.63968 3.82902 8.78033 3.96967C8.92098 4.11032 9 4.30109 9 4.5V12C9 12.7956 9.31607 13.5587 9.87868 14.1213C10.4413 14.6839 11.2044 15 12 15H13.1925L12.2175 15.9675L13.2825 17.0325L16.0575 14.25L13.2825 11.4675Z" fill="black"/>
</svg>
