<svg width="18" height="18" viewBox="0 0 18 18" fill="none" xmlns="http://www.w3.org/2000/svg">
<path d="M11.25 9.3075L9.00003 7.0575L6.75003 9.3075L4.50003 7.0575L2.78253 8.7825L1.71753 7.7175L4.50003 4.9425L6.75003 7.1925L9.00003 4.9425L11.25 7.1925L13.5 4.9425L16.2825 7.7175L15.2175 8.7825L13.5 7.0575L11.25 9.3075ZM13.5 11.5575L15.2175 13.2825L16.2825 12.2175L13.5 9.4425L11.25 11.6925L9.00003 9.4425L6.75003 11.6925L4.50003 9.4425L1.71753 12.2175L2.78253 13.2825L4.50003 11.5575L6.75003 13.8075L9.00003 11.5575L11.25 13.8075L13.5 11.5575Z" fill="black"/>
</svg>
