<svg width="18" height="18" viewBox="0 0 18 18" fill="none" xmlns="http://www.w3.org/2000/svg">
<path d="M12 1.5C11.2125 1.5 10.4325 1.7025 9.75 2.1075C9.48 2.25 9.225 2.445 9 2.655C8.775 2.445 8.52 2.25 8.25 2.1075C7.5675 1.7025 6.7875 1.5 6 1.5C4.80653 1.5 3.66193 1.97411 2.81802 2.81802C1.97411 3.66193 1.5 4.80653 1.5 6C1.5 7.19347 1.97411 8.33807 2.81802 9.18198C3.66193 10.0259 4.80653 10.5 6 10.5V9C5.20435 9 4.44129 8.68393 3.87868 8.12132C3.31607 7.55871 3 6.79565 3 6C3 5.20435 3.31607 4.44129 3.87868 3.87868C4.44129 3.31607 5.20435 3 6 3C6.42573 3.00192 6.84625 3.09378 7.234 3.26956C7.62175 3.44534 7.96798 3.70108 8.25 4.02V16.5H9.75V4.02C9.81 3.9525 9.87 3.885 9.9375 3.825C10.2234 3.55333 10.5602 3.34071 10.9284 3.19931C11.2966 3.05791 11.689 2.9905 12.0833 3.00095C12.4776 3.0114 12.866 3.0995 13.2262 3.2602C13.5864 3.42091 13.9113 3.65106 14.1825 3.9375C14.7294 4.51439 15.0248 5.28489 15.0037 6.07955C14.9826 6.8742 14.6468 7.62795 14.07 8.175C13.5 8.7075 12.7725 9 12 9V10.5C13.1935 10.5 14.3381 10.0259 15.182 9.18198C16.0259 8.33807 16.5 7.19347 16.5 6C16.5 4.80653 16.0259 3.66193 15.182 2.81802C14.3381 1.97411 13.1935 1.5 12 1.5Z" fill="black"/>
</svg>
