<svg width="18" height="18" viewBox="0 0 18 18" fill="none" xmlns="http://www.w3.org/2000/svg">
<path d="M11.6925 6.75C12.4714 6.285 13.1165 5.626 13.5647 4.8373C14.013 4.04861 14.2491 3.15717 14.25 2.25H12.75C12.75 3.24456 12.3549 4.19839 11.6516 4.90165C10.9484 5.60491 9.99456 6 8.99999 6C8.00543 6 7.05161 5.60491 6.34834 4.90165C5.64508 4.19839 5.24999 3.24456 5.24999 2.25H3.74999C3.74999 4.095 4.72499 5.805 6.30749 6.75C3.81749 8.25 2.99999 11.46 4.49999 13.95C5.97749 16.44 9.2025 17.25 11.6925 15.75C14.1825 14.28 15 11.055 13.5 8.565C13.0592 7.81801 12.4377 7.19387 11.6925 6.75ZM8.99999 15C8.00543 15 7.05161 14.6049 6.34834 13.9017C5.64508 13.1984 5.24999 12.2446 5.24999 11.25C5.24999 10.2554 5.64508 9.30161 6.34834 8.59835C7.05161 7.89509 8.00543 7.5 8.99999 7.5C9.99456 7.5 10.9484 7.89509 11.6516 8.59835C12.3549 9.30161 12.75 10.2554 12.75 11.25C12.75 12.2446 12.3549 13.1984 11.6516 13.9017C10.9484 14.6049 9.99456 15 8.99999 15Z" fill="black"/>
</svg>
