<svg width="18" height="18" viewBox="0 0 18 18" fill="none" xmlns="http://www.w3.org/2000/svg">
<path d="M13.875 14.3475C15 13.3275 15 11.385 15 10.5C15 9.70435 14.6839 8.94129 14.1213 8.37868C13.5587 7.81607 12.7956 7.5 12 7.5C11.475 7.5 10.95 7.65 10.5 7.92V4.5C10.5 3.90326 10.2629 3.33097 9.84099 2.90901C9.41903 2.48705 8.84674 2.25 8.25 2.25C7.6875 2.25 7.1625 2.4675 6.75 2.835C6.33771 2.46557 5.80359 2.26128 5.25 2.26128C4.69641 2.26128 4.16229 2.46557 3.75 2.835C3.3375 2.46 2.805 2.25 2.25 2.25V3.75C2.44891 3.75 2.63968 3.82902 2.78033 3.96967C2.92098 4.11032 3 4.30109 3 4.5V12H4.5V4.5C4.5 4.30109 4.57902 4.11032 4.71967 3.96967C4.86032 3.82902 5.05109 3.75 5.25 3.75C5.44891 3.75 5.63968 3.82902 5.78033 3.96967C5.92098 4.11032 6 4.30109 6 4.5V12H7.5V4.5C7.5 4.30109 7.57902 4.11032 7.71967 3.96967C7.86032 3.82902 8.05109 3.75 8.25 3.75C8.44891 3.75 8.63968 3.82902 8.78033 3.96967C8.92098 4.11032 9 4.30109 9 4.5V10.5C9 11.385 9 13.3275 10.125 14.3475C9.54 14.655 8.91 14.88 8.25 15V16.5C9.2175 16.5 11.13 15.555 12 15.0975C12.87 15.555 14.7825 16.5 15.75 16.5V15C15.09 14.88 14.46 14.655 13.875 14.3475ZM12 9C12.3978 9 12.7794 9.15804 13.0607 9.43934C13.342 9.72064 13.5 10.1022 13.5 10.5C13.5 12.69 13.095 13.5 12 13.5C10.905 13.5 10.5 12.69 10.5 10.5C10.5 10.1022 10.658 9.72064 10.9393 9.43934C11.2206 9.15804 11.6022 9 12 9Z" fill="black"/>
</svg>
