<svg width="18" height="18" viewBox="0 0 18 18" fill="none" xmlns="http://www.w3.org/2000/svg">
<path d="M15 12.75C15 13.3467 14.7629 13.919 14.341 14.341C13.919 14.7629 13.3467 15 12.75 15C12.1628 14.9704 11.6075 14.7239 11.1918 14.3082C10.7761 13.8925 10.5295 13.3372 10.5 12.75C10.62 11.5425 10.875 10.35 11.25 9.195C11.655 7.9125 11.9025 6.5925 12 5.25C11.9742 4.26357 11.5708 3.32466 10.8731 2.62691C10.1753 1.92916 9.23641 1.52579 8.24999 1.5C7.26356 1.52579 6.32464 1.92916 5.62689 2.62691C4.92915 3.32466 4.52578 4.26357 4.49999 5.25C4.61249 6.3975 4.87499 7.5225 5.24999 8.625L5.40749 9.15C3.82499 8.6475 2.14499 9.525 1.64249 11.1C1.12499 12.6825 2.00999 14.37 3.59249 14.8725C5.17499 15.375 6.85499 14.4975 7.35749 12.915C7.45499 12.6225 7.49999 12.3075 7.49999 12C7.37999 10.7025 7.12499 9.42 6.68249 8.19C6.35023 7.23731 6.12141 6.25164 5.99999 5.25C6.02954 4.66282 6.27608 4.10754 6.6918 3.69182C7.10752 3.27609 7.66281 3.02955 8.24999 3C9.46499 3.06 10.44 4.035 10.5 5.25C10.3781 6.45845 10.1266 7.65029 9.74999 8.805C9.34499 10.0875 9.09749 11.4075 8.99999 12.75C9.02578 13.7364 9.42915 14.6753 10.1269 15.3731C10.8246 16.0708 11.7636 16.4742 12.75 16.5C13.7445 16.5 14.6984 16.1049 15.4016 15.4017C16.1049 14.6984 16.5 13.7446 16.5 12.75H15ZM4.49999 13.5C4.10216 13.5 3.72063 13.342 3.43933 13.0607C3.15802 12.7794 2.99999 12.3978 2.99999 12C2.99999 11.6022 3.15802 11.2206 3.43933 10.9393C3.72063 10.658 4.10216 10.5 4.49999 10.5C4.89781 10.5 5.27934 10.658 5.56065 10.9393C5.84195 11.2206 5.99999 11.6022 5.99999 12C5.99999 12.3978 5.84195 12.7794 5.56065 13.0607C5.27934 13.342 4.89781 13.5 4.49999 13.5Z" fill="black"/>
</svg>
