<svg width="18" height="18" viewBox="0 0 18 18" fill="none" xmlns="http://www.w3.org/2000/svg">
<path d="M15 8.24998H13.5C13.5825 6.14248 14.0475 4.06498 14.8575 2.11498L13.5 1.54498C12.6062 3.67331 12.0983 5.9437 12 8.24998H6C5.9025 5.93998 5.3925 3.67498 4.5 1.54498L3.105 2.11498C3.93 4.05748 4.4025 6.13498 4.5 8.24998H3V9.74998H4.5C4.41445 11.8592 3.95481 13.9365 3.1425 15.885L4.5 16.455C5.3925 14.325 5.9025 12.06 6 9.74998H12C12.0975 12.06 12.6075 14.325 13.5 16.455L14.895 15.885C14.07 13.9425 13.5975 11.865 13.5 9.74998H15V8.24998Z" fill="black"/>
</svg>
