<svg width="18" height="18" viewBox="0 0 18 18" fill="none" xmlns="http://www.w3.org/2000/svg">
<path d="M11.25 9.75C10.725 9.75 10.2075 9.8925 9.75 10.1625V4.5C9.75 3.90326 9.51295 3.33097 9.09099 2.90901C8.66903 2.48705 8.09674 2.25 7.5 2.25C6.9375 2.25 6.4125 2.4675 6 2.835C5.5875 2.46 5.055 2.25 4.5 2.25V3.75C4.69891 3.75 4.88968 3.82902 5.03033 3.96967C5.17098 4.11032 5.25 4.30109 5.25 4.5V12H6.75V4.5C6.75 4.30109 6.82902 4.11032 6.96967 3.96967C7.11032 3.82902 7.30109 3.75 7.5 3.75C7.69891 3.75 7.88968 3.82902 8.03033 3.96967C8.17098 4.11032 8.25 4.30109 8.25 4.5V12.75C8.25 13.1478 8.09196 13.5294 7.81066 13.8107C7.52936 14.092 7.14782 14.25 6.75 14.25V15.75C7.6125 15.75 8.4375 15.375 9 14.715C9.25772 15.0135 9.57211 15.2578 9.92494 15.4339C10.2778 15.61 10.662 15.7143 11.0555 15.7408C11.4489 15.7673 11.8437 15.7155 12.217 15.5883C12.5902 15.4612 12.9346 15.2612 13.23 15C14.4825 13.935 14.625 12.0375 13.53 10.785C13.2466 10.4588 12.8963 10.1975 12.5028 10.0189C12.1094 9.84034 11.6821 9.74861 11.25 9.75ZM11.25 14.25C10.8522 14.25 10.4706 14.092 10.1893 13.8107C9.90804 13.5294 9.75 13.1478 9.75 12.75C9.75 12.3522 9.90804 11.9706 10.1893 11.6893C10.4706 11.408 10.8522 11.25 11.25 11.25C11.6478 11.25 12.0294 11.408 12.3107 11.6893C12.592 11.9706 12.75 12.3522 12.75 12.75C12.75 13.1478 12.592 13.5294 12.3107 13.8107C12.0294 14.092 11.6478 14.25 11.25 14.25Z" fill="black"/>
</svg>
