<svg width="18" height="18" viewBox="0 0 18 18" fill="none" xmlns="http://www.w3.org/2000/svg">
<path d="M9 3.00003C4.875 3.00003 1.5 5.68503 1.5 9.00003C1.5 10.59 2.7375 11.9025 4.32 12H4.5C5.29565 12 6.05871 11.684 6.62132 11.1213C7.18393 10.5587 7.5 9.79568 7.5 9.00003C7.5 8.20438 7.18393 7.44132 6.62132 6.87871C6.05871 6.3161 5.29565 6.00003 4.5 6.00003H4.32C5.5829 4.80842 7.26409 4.16181 9 4.20003C10.3275 4.18503 11.625 4.55253 12.75 5.25003L13.6875 4.31253C12.2836 3.43372 10.6562 2.97804 9 3.00003ZM4.5 7.50003C4.89782 7.50003 5.27936 7.65806 5.56066 7.93937C5.84196 8.22067 6 8.6022 6 9.00003C6 9.83253 5.31 10.5 4.5 10.5C4.12685 10.5019 3.7664 10.3646 3.48904 10.115C3.21167 9.86536 3.03731 9.52131 3 9.15003V8.85003C3.03731 8.47874 3.21167 8.13469 3.48904 7.88507C3.7664 7.63544 4.12685 7.49816 4.5 7.50003ZM13.68 6.00003H13.5C12.7044 6.00003 11.9413 6.3161 11.3787 6.87871C10.8161 7.44132 10.5 8.20438 10.5 9.00003C10.5 9.79568 10.8161 10.5587 11.3787 11.1213C11.9413 11.684 12.7044 12 13.5 12H13.68C12.4171 13.1916 10.7359 13.8382 9 13.8C7.6725 13.815 6.375 13.4475 5.25 12.75L4.32 13.68C5.7225 14.5575 7.3425 15 9 15C13.125 15 16.5 12.315 16.5 9.00003C16.5 7.41003 15.2625 6.09753 13.68 6.00003ZM13.5 10.5C13.1022 10.5 12.7206 10.342 12.4393 10.0607C12.158 9.77938 12 9.39785 12 9.00003C12 8.16753 12.69 7.50003 13.5 7.50003C13.8732 7.49816 14.2336 7.63544 14.511 7.88507C14.7883 8.13469 14.9627 8.47874 15 8.85003V9.15003C14.9627 9.52131 14.7883 9.86536 14.511 10.115C14.2336 10.3646 13.8732 10.5019 13.5 10.5Z" fill="black"/>
</svg>
