<svg width="18" height="18" viewBox="0 0 18 18" fill="none" xmlns="http://www.w3.org/2000/svg">
<path d="M15 12V13.5H9.75V11.9325C12 11.52 13.47 9.375 13.0575 7.125C12.645 4.875 10.5 3.405 8.25 3.8175C6 4.2375 4.53 6.375 4.9425 8.625C5.25 10.305 6.57 11.625 8.25 11.9325V13.5H3V12H5.19C4.61684 11.4768 4.15932 10.8396 3.84677 10.1292C3.53422 9.41888 3.37353 8.65106 3.375 7.875C3.375 6.38316 3.96763 4.95242 5.02252 3.89752C6.07742 2.84263 7.50816 2.25 9 2.25C10.4918 2.25 11.9226 2.84263 12.9775 3.89752C14.0324 4.95242 14.625 6.38316 14.625 7.875C14.625 9.4425 13.9725 10.9425 12.81 12H15ZM15 14.25H3V15.75H15V14.25Z" fill="black"/>
</svg>
